<svg width="64" height="64" viewBox="0 0 64 64" fill="none" xmlns="http://www.w3.org/2000/svg">
<g clip-path="url(#clip0_2_64)">
<path d="M14.2325 65.9569C23.3212 66.4938 30.7102 73.1834 30.2303 81.3104C29.7502 89.4371 21.6254 95.2099 12.5369 94.6735C3.44814 94.1368 -3.94155 87.4478 -3.46194 79.3209C-2.98206 71.1938 5.14364 65.4202 14.2325 65.9569Z" fill="#A48F0F" stroke="black" stroke-width="2.53333"/>
<ellipse cx="67.0547" cy="59.4531" rx="15.2891" ry="15.1406" fill="#FED174"/>
<circle cx="20.5938" cy="32.4375" r="51.4385" fill="#FED174" stroke="black" stroke-width="2.53333"/>
<g style="mix-blend-mode:overlay">
<ellipse cx="20" cy="32.2891" rx="50.1719" ry="50.3203" fill="url(#paint0_radial_2_64)" fill-opacity="0.8"/>
<ellipse cx="20" cy="32.2891" rx="50.1719" ry="50.3203" fill="url(#paint1_radial_2_64)"/>
</g>
<mask id="path-5-outside-1_2_64" maskUnits="userSpaceOnUse" x="-49.1682" y="-22.9909" width="137" height="121" fill="black">
<rect fill="white" x="-49.1682" y="-22.9909" width="137" height="121"/>
<path fill-rule="evenodd" clip-rule="evenodd" d="M29.0474 81.8455C39.1045 80.1471 48.1466 75.4621 55.2299 68.7343C58.0098 72.2633 62.3215 74.5291 67.1624 74.5291C75.5468 74.5291 82.3437 67.7322 82.3437 59.3478C82.3437 51.7345 76.7395 45.4301 69.4312 44.3349C70.3819 40.4727 70.8861 36.4349 70.8861 32.2793C70.8861 4.51582 48.3794 -17.9909 20.6159 -17.9909C4.81381 -17.9909 -9.28535 -10.6998 -18.501 0.70187C-20.9409 -0.971321 -23.8943 -1.9503 -27.0763 -1.9503C-35.4607 -1.9503 -42.2576 4.84661 -42.2576 13.231C-42.2576 20.793 -36.7287 27.0636 -29.4928 28.221C-29.5998 29.5597 -29.6543 30.9131 -29.6543 32.2793C-29.6543 33.8246 -29.5845 35.3537 -29.448 36.8636C-32.3966 37.5687 -35.0622 39.0594 -37.0919 41.2961C-34.5365 40.7617 -31.717 40.7791 -28.837 41.3557C-28.6923 42.1492 -28.529 42.9362 -28.3475 43.7163C-34.271 42.3228 -39.7862 43.5884 -42.5125 47.5262C-46.5689 53.385 -42.9156 62.9404 -34.3528 68.869C-26.393 74.38 -16.9927 74.8169 -12.4499 70.145C-9.21875 72.9689 -5.62293 75.3859 -1.74235 77.3161C-1.91254 77.9892 -2.02133 78.6835 -2.06335 79.3951C-2.49036 86.6267 4.13967 92.901 12.7452 93.4092C21.107 93.9029 28.2573 88.7709 29.0474 81.8455Z"/>
</mask>
<path d="M55.2299 68.7343L58.812 65.9126C58.0184 64.9051 56.8371 64.2784 55.5578 64.1861C54.2785 64.0939 53.0195 64.5447 52.0896 65.428L55.2299 68.7343ZM29.0474 81.8455L28.2881 77.3491C26.2849 77.6874 24.7471 79.3101 24.5168 81.3286L29.0474 81.8455ZM69.4312 44.3349L65.0034 43.2451C64.6968 44.4906 64.929 45.8077 65.6431 46.8733C66.3571 47.9389 67.4869 48.6545 68.7555 48.8446L69.4312 44.3349ZM-18.501 0.70187L-21.0798 4.46258C-19.1175 5.80826 -16.4503 5.41887 -14.9545 3.56833L-18.501 0.70187ZM-29.4928 28.221L-24.9473 28.5842C-24.7579 26.2127 -26.4234 24.094 -28.7726 23.7183L-29.4928 28.221ZM-29.448 36.8636L-28.3874 41.2985C-26.1849 40.7717 -24.7027 38.7084 -24.9066 36.453L-29.448 36.8636ZM-37.0919 41.2961L-40.4688 38.2318C-41.7967 39.6952 -42.0309 41.8472 -41.0491 43.562C-40.0672 45.2768 -38.0926 46.164 -36.1585 45.7596L-37.0919 41.2961ZM-28.837 41.3557L-24.351 40.5377C-24.6862 38.6992 -26.1093 37.2514 -27.9417 36.8845L-28.837 41.3557ZM-28.3475 43.7163L-29.3917 48.1551C-27.8565 48.5163 -26.2436 48.0585 -25.127 46.9446C-24.0105 45.8308 -23.5487 44.219 -23.9061 42.6829L-28.3475 43.7163ZM-42.5125 47.5262L-38.7634 50.1219L-38.7634 50.1219L-42.5125 47.5262ZM-34.3528 68.869L-36.9485 72.6181L-36.9485 72.6181L-34.3528 68.869ZM-12.4499 70.145L-9.44913 66.7115C-11.2745 65.1162 -14.0291 65.228 -15.7191 66.9661L-12.4499 70.145ZM-1.74235 77.3161L2.67852 78.4339C3.20444 76.354 2.20936 74.1887 0.288459 73.2333L-1.74235 77.3161ZM-2.06335 79.3951L-6.61542 79.1263L-6.61542 79.1263L-2.06335 79.3951ZM12.7452 93.4092L12.4764 97.9612L12.4764 97.9612L12.7452 93.4092ZM55.2299 68.7343L52.0896 65.428C45.6438 71.5502 37.4238 75.8063 28.2881 77.3491L29.0474 81.8455L29.8067 86.3418C40.7852 84.4878 50.6495 79.3739 58.3703 72.0407L55.2299 68.7343ZM67.1624 74.5291V69.9691C63.7779 69.9691 60.7645 68.3912 58.812 65.9126L55.2299 68.7343L51.6478 71.556C55.2551 76.1354 60.8651 79.0891 67.1624 79.0891V74.5291ZM82.3437 59.3478H77.7837C77.7837 65.2138 73.0284 69.9691 67.1624 69.9691V74.5291V79.0891C78.0653 79.0891 86.9037 70.2506 86.9037 59.3478H82.3437ZM69.4312 44.3349L68.7555 48.8446C73.8644 49.6101 77.7837 54.0254 77.7837 59.3478H82.3437H86.9037C86.9037 49.4435 79.6145 41.25 70.107 39.8253L69.4312 44.3349ZM70.8861 32.2793H66.3261C66.3261 36.0647 65.8669 39.7367 65.0034 43.2451L69.4312 44.3349L73.8591 45.4248C74.8968 41.2087 75.4461 36.805 75.4461 32.2793H70.8861ZM20.6159 -17.9909V-13.4309C45.8609 -13.4309 66.3261 7.03424 66.3261 32.2793H70.8861H75.4461C75.4461 1.9974 50.8978 -22.5509 20.6159 -22.5509V-17.9909ZM-18.501 0.70187L-14.9545 3.56833C-6.56748 -6.80824 6.24916 -13.4309 20.6159 -13.4309V-17.9909V-22.5509C3.37847 -22.5509 -12.0032 -14.5913 -22.0474 -2.16459L-18.501 0.70187ZM-27.0763 -1.9503V2.6097C-24.8438 2.6097 -22.7848 3.29342 -21.0798 4.46258L-18.501 0.70187L-15.9221 -3.05884C-19.097 -5.23606 -22.9447 -6.5103 -27.0763 -6.5103V-1.9503ZM-42.2576 13.231H-37.6976C-37.6976 7.36502 -32.9423 2.6097 -27.0763 2.6097V-1.9503V-6.5103C-37.9791 -6.5103 -46.8176 2.32819 -46.8176 13.231H-42.2576ZM-29.4928 28.221L-28.7726 23.7183C-33.8313 22.9091 -37.6976 18.5173 -37.6976 13.231H-42.2576H-46.8176C-46.8176 23.0687 -39.6261 31.2181 -30.2131 32.7238L-29.4928 28.221ZM-29.6543 32.2793H-25.0943C-25.0943 31.0344 -25.0446 29.8021 -24.9473 28.5842L-29.4928 28.221L-34.0383 27.8579C-34.1549 29.3172 -34.2143 30.7918 -34.2143 32.2793H-29.6543ZM-29.448 36.8636L-24.9066 36.453C-25.0307 35.0795 -25.0943 33.6874 -25.0943 32.2793H-29.6543H-34.2143C-34.2143 33.9619 -34.1383 35.628 -33.9895 37.2741L-29.448 36.8636ZM-37.0919 41.2961L-33.7149 44.3604C-32.3557 42.8624 -30.5246 41.8096 -28.3874 41.2985L-29.448 36.8636L-30.5087 32.4286C-34.2686 33.3278 -37.7688 35.2564 -40.4688 38.2318L-37.0919 41.2961ZM-28.837 41.3557L-27.9417 36.8845C-31.3554 36.201 -34.8008 36.1584 -38.0253 36.8327L-37.0919 41.2961L-36.1585 45.7596C-34.2721 45.3651 -32.0785 45.3572 -29.7323 45.827L-28.837 41.3557ZM-28.3475 43.7163L-23.9061 42.6829C-24.071 41.9741 -24.2195 41.2589 -24.351 40.5377L-28.837 41.3557L-33.323 42.1738C-33.1651 43.0396 -32.9869 43.8984 -32.7889 44.7496L-28.3475 43.7163ZM-42.5125 47.5262L-38.7634 50.1219C-37.543 48.3592 -34.3791 46.9819 -29.3917 48.1551L-28.3475 43.7163L-27.3033 39.2774C-34.1628 37.6638 -42.0293 38.8176 -46.2616 44.9305L-42.5125 47.5262ZM-34.3528 68.869L-31.7571 65.1198C-35.3817 62.6104 -37.7975 59.4412 -38.9055 56.543C-40.023 53.6201 -39.685 51.453 -38.7634 50.1219L-42.5125 47.5262L-46.2616 44.9305C-49.3964 49.4581 -49.2599 54.9982 -47.4242 59.7998C-45.579 64.6262 -41.8868 69.199 -36.9485 72.6181L-34.3528 68.869ZM-12.4499 70.145L-15.7191 66.9661C-16.8081 68.086 -18.8431 68.9381 -21.8708 68.7724C-24.8548 68.6091 -28.3943 67.4481 -31.7571 65.1198L-34.3528 68.869L-36.9485 72.6181C-32.3515 75.8008 -27.211 77.6138 -22.3691 77.8788C-17.5711 78.1413 -12.6345 76.8759 -9.18063 73.3239L-12.4499 70.145ZM-1.74235 77.3161L0.288459 73.2333C-3.23885 71.4788 -6.50922 69.2808 -9.44913 66.7115L-12.4499 70.145L-15.4506 73.5785C-11.9283 76.6569 -8.00702 79.293 -3.77315 81.3989L-1.74235 77.3161ZM-2.06335 79.3951L2.48873 79.6639C2.51367 79.2414 2.57804 78.8313 2.67852 78.4339L-1.74235 77.3161L-6.16322 76.1983C-6.40313 77.1471 -6.55633 78.1257 -6.61542 79.1263L-2.06335 79.3951ZM12.7452 93.4092L13.014 88.8571C6.1485 88.4517 2.25207 83.6717 2.48873 79.6639L-2.06335 79.3951L-6.61542 79.1263C-7.23279 89.5817 2.13084 97.3503 12.4764 97.9612L12.7452 93.4092ZM29.0474 81.8455L24.5168 81.3286C24.0742 85.2078 19.6585 89.2494 13.014 88.8571L12.7452 93.4092L12.4764 97.9612C22.5555 98.5564 32.4403 92.3339 33.578 82.3624L29.0474 81.8455Z" fill="black" mask="url(#path-5-outside-1_2_64)"/>
<path d="M26.6791 21.888C26.6115 22.0655 26.5445 22.2442 26.473 22.4221C23.5881 29.6031 18.6134 34.3661 15.3617 33.0598C12.11 31.7535 11.8127 24.8727 14.6976 17.6917C15.7819 14.9929 17.161 12.6355 18.6332 10.8138L26.6791 21.888Z" fill="black"/>
<path d="M50.9099 31.1329C50.345 33.3043 49.3578 35.686 47.9695 38.045C46.7234 40.1624 45.304 42.0065 43.8523 43.4816L34.2029 38.1124C34.7821 36.0528 35.7312 33.8204 37.033 31.6085C38.0531 29.8753 39.1893 28.3256 40.364 27.0109L50.9099 31.1329Z" fill="black"/>
</g>
<defs>
<radialGradient id="paint0_radial_2_64" cx="0" cy="0" r="1" gradientUnits="userSpaceOnUse" gradientTransform="translate(17.57 30.4254) rotate(-133.169) scale(66.4393 66.4271)">
<stop offset="0.505108" stop-color="#808080"/>
<stop offset="0.505208"/>
<stop offset="0.760317"/>
<stop offset="0.760417" stop-color="white"/>
</radialGradient>
<radialGradient id="paint1_radial_2_64" cx="0" cy="0" r="1" gradientUnits="userSpaceOnUse" gradientTransform="translate(5.56308 16.6625) rotate(-121.051) scale(69.2796 69.1842)">
<stop offset="0.817608" stop-color="#808080"/>
<stop offset="0.817708" stop-color="white" stop-opacity="0"/>
</radialGradient>
<clipPath id="clip0_2_64">
<rect width="64" height="64" fill="white"/>
</clipPath>
</defs>
</svg>

